HIERARCHY
ROOT Hips
{
	OFFSET 0.000000 0.000000 0.000000
	CHANNELS 6 Xposition Yposition Zposition Zrotation Xrotation Yrotation
	JOINT Spine
	{
		OFFSET 0.000000 0.052128 0.009727
		CHANNELS 6 Xposition Yposition Zposition Zrotation Xrotation Yrotation
		JOINT Chest
		{
			OFFSET 0.000000 0.110886 0.014510
			CHANNELS 6 Xposition Yposition Zposition Zrotation Xrotation Yrotation
			JOINT UpperChest
			{
				OFFSET 0.000000 0.124285 -0.013313
				CHANNELS 6 Xposition Yposition Zposition Zrotation Xrotation Yrotation
				JOINT Neck
				{
					OFFSET 0.000000 0.114615 -0.033396
					CHANNELS 6 Xposition Yposition Zposition Zrotation Xrotation Yrotation
					JOINT Head
					{
						OFFSET 0.000000 0.073770 0.009335
						CHANNELS 6 Xposition Yposition Zposition Zrotation Xrotation Yrotation
						JOINT LeftEye
						{
							OFFSET 0.020036 0.059252 0.028383
							CHANNELS 6 Xposition Yposition Zposition Zrotation Xrotation Yrotation
							End Site
							{
								OFFSET 0.020036 0.059252 0.028383
							}
						}
						JOINT RightEye
						{
							OFFSET -0.020036 0.059252 0.028383
							CHANNELS 6 Xposition Yposition Zposition Zrotation Xrotation Yrotation
							End Site
							{
								OFFSET -0.020036 0.059252 0.028383
							}
						}
					}
				}
				JOINT LeftShoulder
				{
					OFFSET 0.022386 0.087264 -0.027443
					CHANNELS 6 Xposition Yposition Zposition Zrotation Xrotation Yrotation
					JOINT LeftUpperArm
					{
						OFFSET 0.086295 -0.014869 0.005364
						CHANNELS 6 Xposition Yposition Zposition Zrotation Xrotation Yrotation
						JOINT LeftLowerArm
						{
							OFFSET 0.210165 -0.009786 0.001763
							CHANNELS 6 Xposition Yposition Zposition Zrotation Xrotation Yrotation
							JOINT LeftHand
							{
								OFFSET 0.204753 -0.000446 0.016902
								CHANNELS 6 Xposition Yposition Zposition Zrotation Xrotation Yrotation
								JOINT LeftIndexProximal
								{
									OFFSET 0.063906 0.005562 0.021442
									CHANNELS 6 Xposition Yposition Zposition Zrotation Xrotation Yrotation
									JOINT LeftIndexIntermediate
									{
										OFFSET 0.032821 -0.000134 0.005149
										CHANNELS 6 Xposition Yposition Zposition Zrotation Xrotation Yrotation
										JOINT LeftIndexDistal
										{
											OFFSET 0.020314 -0.000674 0.002301
											CHANNELS 6 Xposition Yposition Zposition Zrotation Xrotation Yrotation
											End Site
											{
												OFFSET 0.020314 -0.000674 0.002301
											}
										}
									}
								}
								JOINT LeftLittleProximal
								{
									OFFSET 0.063261 0.003125 -0.026793
									CHANNELS 6 Xposition Yposition Zposition Zrotation Xrotation Yrotation
									JOINT LeftLittleIntermediate
									{
										OFFSET 0.031398 -0.000273 0.000022
										CHANNELS 6 Xposition Yposition Zposition Zrotation Xrotation Yrotation
										JOINT LeftLittleDistal
										{
											OFFSET 0.018059 0.000679 -0.000943
											CHANNELS 6 Xposition Yposition Zposition Zrotation Xrotation Yrotation
											End Site
											{
												OFFSET 0.018059 0.000679 -0.000943
											}
										}
									}
								}
								JOINT LeftMiddleProximal
								{
									OFFSET 0.066112 0.008373 0.004780
									CHANNELS 6 Xposition Yposition Zposition Zrotation Xrotation Yrotation
									JOINT LeftMiddleIntermediate
									{
										OFFSET 0.036901 -0.001349 0.002438
										CHANNELS 6 Xposition Yposition Zposition Zrotation Xrotation Yrotation
										JOINT LeftMiddleDistal
										{
											OFFSET 0.022683 -0.002405 0.000937
											CHANNELS 6 Xposition Yposition Zposition Zrotation Xrotation Yrotation
											End Site
											{
												OFFSET 0.022683 -0.002405 0.000937
											}
										}
									}
								}
								JOINT LeftRingProximal
								{
									OFFSET 0.066681 0.008306 -0.010961
									CHANNELS 6 Xposition Yposition Zposition Zrotation Xrotation Yrotation
									JOINT LeftRingIntermediate
									{
										OFFSET 0.034323 -0.000538 0.000172
										CHANNELS 6 Xposition Yposition Zposition Zrotation Xrotation Yrotation
										JOINT LeftRingDistal
										{
											OFFSET 0.019797 0.000700 0.000249
											CHANNELS 6 Xposition Yposition Zposition Zrotation Xrotation Yrotation
											End Site
											{
												OFFSET 0.019797 0.000700 0.000249
											}
										}
									}
								}
								JOINT LeftThumbProximal
								{
									OFFSET 0.002032 -0.006912 0.017734
									CHANNELS 6 Xposition Yposition Zposition Zrotation Xrotation Yrotation
									JOINT LeftThumbIntermediate
									{
										OFFSET 0.032287 -0.002701 0.033401
										CHANNELS 6 Xposition Yposition Zposition Zrotation Xrotation Yrotation
										JOINT LeftThumbDistal
										{
											OFFSET 0.021324 -0.001512 0.019035
											CHANNELS 6 Xposition Yposition Zposition Zrotation Xrotation Yrotation
											End Site
											{
												OFFSET 0.021324 -0.001512 0.019035
											}
										}
									}
								}
							}
						}
					}
				}
				JOINT RightShoulder
				{
					OFFSET -0.022386 0.087267 -0.027443
					CHANNELS 6 Xposition Yposition Zposition Zrotation Xrotation Yrotation
					JOINT RightUpperArm
					{
						OFFSET -0.086294 -0.014870 0.005364
						CHANNELS 6 Xposition Yposition Zposition Zrotation Xrotation Yrotation
						JOINT RightLowerArm
						{
							OFFSET -0.210167 -0.009788 0.001763
							CHANNELS 6 Xposition Yposition Zposition Zrotation Xrotation Yrotation
							JOINT RightHand
							{
								OFFSET -0.204752 -0.000445 0.016902
								CHANNELS 6 Xposition Yposition Zposition Zrotation Xrotation Yrotation
								JOINT RightIndexProximal
								{
									OFFSET -0.063906 0.005562 0.021442
									CHANNELS 6 Xposition Yposition Zposition Zrotation Xrotation Yrotation
									JOINT RightIndexIntermediate
									{
										OFFSET -0.032821 -0.000134 0.005149
										CHANNELS 6 Xposition Yposition Zposition Zrotation Xrotation Yrotation
										JOINT RightIndexDistal
										{
											OFFSET -0.020314 -0.000674 0.002302
											CHANNELS 6 Xposition Yposition Zposition Zrotation Xrotation Yrotation
											End Site
											{
												OFFSET -0.020314 -0.000674 0.002302
											}
										}
									}
								}
								JOINT RightLittleProximal
								{
									OFFSET -0.063261 0.003125 -0.026793
									CHANNELS 6 Xposition Yposition Zposition Zrotation Xrotation Yrotation
									JOINT RightLittleIntermediate
									{
										OFFSET -0.031398 -0.000273 0.000023
										CHANNELS 6 Xposition Yposition Zposition Zrotation Xrotation Yrotation
										JOINT RightLittleDistal
										{
											OFFSET -0.018059 0.000679 -0.000943
											CHANNELS 6 Xposition Yposition Zposition Zrotation Xrotation Yrotation
											End Site
											{
												OFFSET -0.018059 0.000679 -0.000943
											}
										}
									}
								}
								JOINT RightMiddleProximal
								{
									OFFSET -0.066112 0.008373 0.004780
									CHANNELS 6 Xposition Yposition Zposition Zrotation Xrotation Yrotation
									JOINT RightMiddleIntermediate
									{
										OFFSET -0.036901 -0.001349 0.002438
										CHANNELS 6 Xposition Yposition Zposition Zrotation Xrotation Yrotation
										JOINT RightMiddleDistal
										{
											OFFSET -0.022683 -0.002405 0.000937
											CHANNELS 6 Xposition Yposition Zposition Zrotation Xrotation Yrotation
											End Site
											{
												OFFSET -0.022683 -0.002405 0.000937
											}
										}
									}
								}
								JOINT RightRingProximal
								{
									OFFSET -0.066681 0.008306 -0.010961
									CHANNELS 6 Xposition Yposition Zposition Zrotation Xrotation Yrotation
									JOINT RightRingIntermediate
									{
										OFFSET -0.034323 -0.000538 0.000173
										CHANNELS 6 Xposition Yposition Zposition Zrotation Xrotation Yrotation
										JOINT RightRingDistal
										{
											OFFSET -0.019796 0.000700 0.000249
											CHANNELS 6 Xposition Yposition Zposition Zrotation Xrotation Yrotation
											End Site
											{
												OFFSET -0.019796 0.000700 0.000249
											}
										}
									}
								}
								JOINT RightThumbProximal
								{
									OFFSET -0.002032 -0.006912 0.017734
									CHANNELS 6 Xposition Yposition Zposition Zrotation Xrotation Yrotation
									JOINT RightThumbIntermediate
									{
										OFFSET -0.032277 -0.002678 0.033413
										CHANNELS 6 Xposition Yposition Zposition Zrotation Xrotation Yrotation
										JOINT RightThumbDistal
										{
											OFFSET -0.021319 -0.001499 0.019040
											CHANNELS 6 Xposition Yposition Zposition Zrotation Xrotation Yrotation
											End Site
											{
												OFFSET -0.021319 -0.001499 0.019040
											}
										}
									}
								}
							}
						}
					}
				}
			}
		}
	}
	JOINT LeftUpperLeg
	{
		OFFSET 0.077122 -0.039702 -0.004909
		CHANNELS 6 Xposition Yposition Zposition Zrotation Xrotation Yrotation
		JOINT LeftLowerLeg
		{
			OFFSET -0.019634 -0.342480 -0.006634
			CHANNELS 6 Xposition Yposition Zposition Zrotation Xrotation Yrotation
			JOINT LeftFoot
			{
				OFFSET -0.010011 -0.401580 -0.020943
				CHANNELS 6 Xposition Yposition Zposition Zrotation Xrotation Yrotation
				JOINT LeftToes
				{
					OFFSET 0.001443 -0.064447 0.110538
					CHANNELS 6 Xposition Yposition Zposition Zrotation Xrotation Yrotation
					End Site
					{
						OFFSET 0.001443 -0.064447 0.110538
					}
				}
			}
		}
	}
	JOINT RightUpperLeg
	{
		OFFSET -0.077122 -0.039702 -0.004909
		CHANNELS 6 Xposition Yposition Zposition Zrotation Xrotation Yrotation
		JOINT RightLowerLeg
		{
			OFFSET 0.019634 -0.342480 -0.006634
			CHANNELS 6 Xposition Yposition Zposition Zrotation Xrotation Yrotation
			JOINT RightFoot
			{
				OFFSET 0.010012 -0.401580 -0.020943
				CHANNELS 6 Xposition Yposition Zposition Zrotation Xrotation Yrotation
				JOINT RightToes
				{
					OFFSET -0.001442 -0.064447 0.110538
					CHANNELS 6 Xposition Yposition Zposition Zrotation Xrotation Yrotation
					End Site
					{
						OFFSET -0.001442 -0.064447 0.110538
					}
				}
			}
		}
	}
}
MOTION
Frames: 4
Frame Time: 0.041667
0.163782 0.640202 -0.855986 27.656785 12.874616 -34.329846 0.000000 0.052128 0.009727 2.082358 10.634738 -3.905810 0.000000 0.110886 0.014510 2.455426 29.730526 -1.978259 -0.000000 0.124285 -0.013313 -0.000010 0.000012 -0.000006 -0.000000 0.114615 -0.033396 -5.289953 -27.305686 -0.111390 -0.000000 0.073770 0.009335 -3.089009 -11.849589 6.605025 0.020036 0.059252 0.028383 -0.000004 -0.000016 0.000006 -0.020036 0.059252 0.028383 0.000007 -0.000019 0.000004 0.022386 0.087264 -0.027443 -15.435982 -22.365053 -3.465690 0.086295 -0.014869 0.005364 -38.592973 37.458325 -39.074904 0.210165 -0.009786 0.001763 17.684861 25.761419 -29.754076 0.204753 -0.000446 0.016902 10.937584 5.079447 -5.265206 0.063906 0.005562 0.021442 0.000002 0.000002 -0.000001 0.032821 -0.000134 0.005149 -0.000002 0.000002 0.000000 0.020314 -0.000674 0.002301 0.000001 0.000001 -0.000001 0.063261 0.003125 -0.026793 0.000000 0.000001 -0.000000 0.031398 -0.000273 0.000022 -0.000000 0.000007 -0.000002 0.018059 0.000679 -0.000943 0.000002 -0.000007 0.000001 0.066112 0.008373 0.004780 0.000003 0.000008 -0.000001 0.036901 -0.001349 0.002438 -0.000001 0.000003 0.000001 0.022683 -0.002405 0.000937 -0.000001 0.000007 -0.000002 0.066681 0.008306 -0.010961 0.000001 -0.000000 -0.000002 0.034323 -0.000538 0.000172 0.000002 0.000001 -0.000003 0.019797 0.000700 0.000249 0.000001 0.000004 -0.000003 0.002032 -0.006912 0.017734 -0.000003 -0.000001 -0.000022 0.032287 -0.002701 0.033401 -0.000004 0.000001 -0.000002 0.021324 -0.001512 0.019035 0.000008 -0.000014 -0.000023 -0.022386 0.087267 -0.027443 -31.122816 -20.995867 -6.988139 -0.086294 -0.014870 0.005364 82.600107 28.509070 28.463051 -0.210167 -0.009788 0.001763 -11.060825 27.024772 41.898511 -0.204752 -0.000445 0.016902 5.513359 12.676230 0.585419 -0.063906 0.005562 0.021442 0.000005 0.000005 -0.000005 -0.032821 -0.000134 0.005149 -0.000008 -0.000009 -0.000008 -0.020314 -0.000674 0.002302 0.000001 0.000006 -0.000001 -0.063261 0.003125 -0.026793 0.000004 0.000000 -0.000004 -0.031398 -0.000273 0.000023 0.000002 0.000003 -0.000000 -0.018059 0.000679 -0.000943 0.000003 -0.000001 -0.000000 -0.066112 0.008373 0.004780 0.000004 0.000005 -0.000002 -0.036901 -0.001349 0.002438 -0.000009 0.000002 -0.000004 -0.022683 -0.002405 0.000937 0.000001 -0.000000 0.000004 -0.066681 0.008306 -0.010961 0.000007 0.000007 -0.000000 -0.034323 -0.000538 0.000173 -0.000001 0.000002 -0.000001 -0.019796 0.000700 0.000249 -0.000001 -0.000002 -0.000000 -0.002032 -0.006912 0.017734 0.000006 -0.000001 -0.000002 -0.032277 -0.002678 0.033413 -0.000004 0.000006 -0.000016 -0.021319 -0.001499 0.019040 0.000001 -0.000006 -0.000008 0.077122 -0.039702 -0.004909 -23.983637 -51.653442 -19.280738 -0.019634 -0.342480 -0.006634 178.793616 147.761990 -181.662405 -0.010011 -0.401580 -0.020943 5.981233 -13.541431 18.842808 0.001443 -0.064447 0.110538 0.000001 0.000002 0.000001 -0.077122 -0.039702 -0.004909 -19.721323 -50.559505 -14.885906 0.019634 -0.342480 -0.006634 -4.049203 35.833191 10.910414 0.010012 -0.401580 -0.020943 -4.359873 -18.248292 -10.731935 -0.001442 -0.064447 0.110538 -0.000001 -0.000011 0.000000 
0.153011 0.629543 -0.863856 27.767048 13.238507 -33.434469 0.000000 0.052128 0.009727 1.394472 9.452814 -4.052179 0.000000 0.110886 0.014510 1.698021 28.604989 -1.509821 0.000000 0.124285 -0.013313 -0.000002 -0.000003 -0.000002 0.000000 0.114615 -0.033396 -4.508667 -25.819263 -0.118384 -0.000000 0.073770 0.009335 -3.341070 -11.734069 4.866898 0.020036 0.059252 0.028383 -0.000001 0.000001 0.000013 -0.020036 0.059252 0.028383 0.000008 0.000013 -0.000013 0.022386 0.087264 -0.027443 -13.855660 -21.908571 -2.020399 0.086295 -0.014869 0.005364 -40.901597 36.662557 -36.587367 0.210165 -0.009786 0.001763 15.963083 22.085224 -31.907358 0.204753 -0.000446 0.016902 12.912313 6.706719 -5.926717 0.063906 0.005562 0.021442 0.000002 -0.000007 0.000005 0.032821 -0.000134 0.005149 -0.000008 -0.000004 0.000003 0.020314 -0.000674 0.002301 0.000001 -0.000007 0.000001 0.063261 0.003125 -0.026793 0.000000 -0.000011 0.000001 0.031398 -0.000273 0.000022 -0.000005 -0.000004 0.000001 0.018059 0.000679 -0.000943 0.000001 0.000004 0.000001 0.066112 0.008373 0.004780 0.000001 -0.000010 -0.000002 0.036901 -0.001349 0.002438 0.000001 -0.000008 0.000002 0.022683 -0.002405 0.000937 -0.000002 0.000003 -0.000002 0.066681 0.008306 -0.010961 -0.000001 -0.000008 0.000000 0.034323 -0.000538 0.000172 0.000000 -0.000001 0.000000 0.019797 0.000700 0.000249 -0.000001 -0.000002 0.000002 0.002032 -0.006912 0.017734 -0.000003 -0.000008 -0.000012 0.032287 -0.002701 0.033401 -0.000004 -0.000009 0.000005 0.021324 -0.001512 0.019035 0.000007 0.000001 -0.000006 -0.022386 0.087267 -0.027443 -30.000810 -20.604768 -7.692327 -0.086294 -0.014870 0.005364 80.147837 28.055017 28.607540 -0.210167 -0.009788 0.001763 -8.597196 27.955348 42.672225 -0.204752 -0.000445 0.016902 6.277906 12.791413 3.172612 -0.063906 0.005562 0.021442 0.000001 -0.000002 -0.000009 -0.032821 -0.000134 0.005149 0.000004 0.000006 -0.000006 -0.020314 -0.000674 0.002302 0.000007 -0.000004 -0.000001 -0.063261 0.003125 -0.026793 0.000000 0.000006 -0.000014 -0.031398 -0.000273 0.000023 0.000003 0.000012 0.000006 -0.018059 0.000679 -0.000943 0.000002 0.000004 0.000005 -0.066112 0.008373 0.004780 0.000000 0.000002 -0.000011 -0.036901 -0.001349 0.002438 -0.000002 0.000007 -0.000011 -0.022683 -0.002405 0.000937 -0.000004 -0.000005 0.000009 -0.066681 0.008306 -0.010961 0.000001 0.000005 -0.000008 -0.034323 -0.000538 0.000173 -0.000006 -0.000007 -0.000008 -0.019796 0.000700 0.000249 0.000001 -0.000002 -0.000004 -0.002032 -0.006912 0.017734 0.000010 0.000004 -0.000017 -0.032277 -0.002678 0.033413 0.000007 0.000007 -0.000018 -0.021319 -0.001499 0.019040 0.000009 0.000000 -0.000001 0.077122 -0.039702 -0.004909 -26.725589 -53.047115 -21.941687 -0.019634 -0.342480 -0.006634 180.226795 143.666226 -184.202976 -0.010011 -0.401580 -0.020943 7.296464 -14.775219 21.341474 0.001443 -0.064447 0.110538 0.000000 -0.000010 -0.000003 -0.077122 -0.039702 -0.004909 -20.442954 -50.798050 -15.515304 0.019634 -0.342480 -0.006634 -2.401924 37.672427 7.770940 0.010012 -0.401580 -0.020943 -3.407917 -19.797148 -7.634551 -0.001442 -0.064447 0.110538 0.000003 -0.000013 -0.000002 
0.144877 0.617907 -0.869388 27.614810 13.030470 -33.087557 0.000000 0.052128 0.009727 0.763965 8.933192 -3.811804 -0.000000 0.110886 0.014510 1.018068 28.080084 -1.215614 -0.000000 0.124285 -0.013313 -0.000007 -0.000007 -0.000002 0.000000 0.114615 -0.033396 -4.008468 -25.011591 -0.099061 -0.000000 0.073770 0.009335 -3.721317 -11.357727 2.472538 0.020036 0.059252 0.028383 -0.000007 -0.000001 -0.000001 -0.020036 0.059252 0.028383 0.000002 -0.000001 -0.000011 0.022386 0.087264 -0.027443 -13.138056 -21.708858 -1.123187 0.086295 -0.014869 0.005364 -41.891671 35.977629 -34.765297 0.210165 -0.009786 0.001763 14.492145 19.033166 -34.240633 0.204753 -0.000446 0.016902 13.925710 8.669800 -8.060270 0.063906 0.005562 0.021442 0.000002 -0.000005 -0.000002 0.032821 -0.000134 0.005149 0.000003 -0.000003 0.000003 0.020314 -0.000674 0.002301 -0.000005 -0.000002 -0.000002 0.063261 0.003125 -0.026793 0.000001 0.000004 -0.000000 0.031398 -0.000273 0.000022 -0.000002 0.000002 0.000002 0.018059 0.000679 -0.000943 0.000001 0.000001 0.000001 0.066112 0.008373 0.004780 0.000002 0.000002 -0.000004 0.036901 -0.001349 0.002438 -0.000003 -0.000012 0.000003 0.022683 -0.002405 0.000937 -0.000004 -0.000008 -0.000002 0.066681 0.008306 -0.010961 0.000006 0.000001 -0.000005 0.034323 -0.000538 0.000172 0.000003 0.000003 -0.000000 0.019797 0.000700 0.000249 0.000005 -0.000005 0.000002 0.002032 -0.006912 0.017734 -0.000006 -0.000002 -0.000007 0.032287 -0.002701 0.033401 -0.000004 -0.000007 -0.000004 0.021324 -0.001512 0.019035 0.000005 0.000003 0.000004 -0.022386 0.087267 -0.027443 -29.591303 -20.424036 -8.297497 -0.086294 -0.014870 0.005364 77.812507 27.221060 29.036596 -0.210167 -0.009788 0.001763 -6.047302 29.549888 43.499265 -0.204752 -0.000445 0.016902 6.358144 12.552009 4.229178 -0.063906 0.005562 0.021442 0.000003 -0.000001 -0.000002 -0.032821 -0.000134 0.005149 0.000000 0.000007 -0.000003 -0.020314 -0.000674 0.002302 0.000002 -0.000000 -0.000010 -0.063261 0.003125 -0.026793 0.000001 0.000002 -0.000003 -0.031398 -0.000273 0.000023 0.000003 0.000006 -0.000003 -0.018059 0.000679 -0.000943 -0.000001 0.000000 0.000005 -0.066112 0.008373 0.004780 0.000001 -0.000001 -0.000008 -0.036901 -0.001349 0.002438 0.000002 0.000007 0.000003 -0.022683 -0.002405 0.000937 -0.000004 -0.000006 0.000006 -0.066681 0.008306 -0.010961 -0.000003 -0.000008 -0.000009 -0.034323 -0.000538 0.000173 -0.000004 0.000005 -0.000006 -0.019796 0.000700 0.000249 -0.000003 -0.000005 0.000000 -0.002032 -0.006912 0.017734 0.000000 0.000005 -0.000011 -0.032277 -0.002678 0.033413 0.000004 0.000020 -0.000019 -0.021319 -0.001499 0.019040 0.000005 0.000007 -0.000008 0.077122 -0.039702 -0.004909 -29.144827 -53.883164 -24.251422 -0.019634 -0.342480 -0.006634 181.498426 139.208435 -185.938199 -0.010011 -0.401580 -0.020943 8.600553 -16.048754 23.415767 0.001443 -0.064447 0.110538 0.000002 -0.000003 -0.000007 -0.077122 -0.039702 -0.004909 -22.157923 -50.486293 -16.821460 0.019634 -0.342480 -0.006634 0.225563 39.791446 3.289708 0.010012 -0.401580 -0.020943 -1.998337 -20.994883 -3.835758 -0.001442 -0.064447 0.110538 -0.000005 -0.000013 0.000002 
0.136879 0.604491 -0.873249 27.818618 12.921752 -33.399605 0.000000 0.052128 0.009727 -0.171414 8.312391 -3.270016 -0.000000 0.110886 0.014510 0.052273 27.417342 -0.865520 -0.000000 0.124285 -0.013313 0.000008 0.000003 -0.000003 0.000000 0.114615 -0.033396 -3.384645 -24.404624 -0.041718 0.000000 0.073770 0.009335 -3.977267 -10.901254 0.452823 0.020036 0.059252 0.028383 -0.000011 -0.000004 0.000012 -0.020036 0.059252 0.028383 0.000002 -0.000002 -0.000006 0.022386 0.087264 -0.027443 -12.299590 -21.423817 -0.547311 0.086295 -0.014869 0.005364 -42.718698 34.989778 -32.870057 0.210165 -0.009786 0.001763 13.492555 16.983723 -36.931007 0.204753 -0.000446 0.016902 14.231783 11.138682 -11.298517 0.063906 0.005562 0.021442 0.000004 -0.000003 -0.000002 0.032821 -0.000134 0.005149 -0.000003 0.000003 0.000002 0.020314 -0.000674 0.002301 -0.000001 0.000006 -0.000004 0.063261 0.003125 -0.026793 0.000011 0.000001 -0.000003 0.031398 -0.000273 0.000022 0.000004 -0.000005 0.000003 0.018059 0.000679 -0.000943 -0.000003 0.000007 -0.000000 0.066112 0.008373 0.004780 0.000008 -0.000003 0.000001 0.036901 -0.001349 0.002438 -0.000001 -0.000002 -0.000001 0.022683 -0.002405 0.000937 -0.000005 -0.000004 -0.000006 0.066681 0.008306 -0.010961 0.000001 -0.000007 -0.000000 0.034323 -0.000538 0.000172 0.000008 0.000002 0.000001 0.019797 0.000700 0.000249 -0.000003 0.000002 0.000002 0.002032 -0.006912 0.017734 0.000007 -0.000005 -0.000025 0.032287 -0.002701 0.033401 0.000002 -0.000001 0.000001 0.021324 -0.001512 0.019035 0.000004 -0.000001 -0.000004 -0.022386 0.087267 -0.027443 -29.062697 -20.164073 -8.520756 -0.086294 -0.014870 0.005364 75.619954 26.438373 29.745931 -0.210167 -0.009788 0.001763 -4.319433 32.121553 44.558440 -0.204752 -0.000445 0.016902 4.680803 12.340449 4.535860 -0.063906 0.005562 0.021442 0.000002 0.000001 -0.000002 -0.032821 -0.000134 0.005149 -0.000001 -0.000005 -0.000009 -0.020314 -0.000674 0.002302 0.000002 0.000007 -0.000004 -0.063261 0.003125 -0.026793 -0.000002 0.000007 -0.000003 -0.031398 -0.000273 0.000023 -0.000002 0.000007 -0.000006 -0.018059 0.000679 -0.000943 0.000003 0.000003 -0.000005 -0.066112 0.008373 0.004780 -0.000006 -0.000006 0.000003 -0.036901 -0.001349 0.002438 0.000002 0.000001 -0.000000 -0.022683 -0.002405 0.000937 -0.000001 0.000004 0.000003 -0.066681 0.008306 -0.010961 0.000000 -0.000000 0.000002 -0.034323 -0.000538 0.000173 -0.000003 0.000000 -0.000011 -0.019796 0.000700 0.000249 -0.000003 0.000003 -0.000011 -0.002032 -0.006912 0.017734 -0.000000 -0.000003 -0.000006 -0.032277 -0.002678 0.033413 -0.000005 -0.000006 -0.000005 -0.021319 -0.001499 0.019040 -0.000009 -0.000004 0.000002 0.077122 -0.039702 -0.004909 -31.153145 -55.028239 -26.341494 -0.019634 -0.342480 -0.006634 182.286261 134.627482 -186.682444 -0.010011 -0.401580 -0.020943 9.643570 -17.435147 24.500645 0.001443 -0.064447 0.110538 0.000003 -0.000002 -0.000003 -0.077122 -0.039702 -0.004909 -24.775113 -50.512825 -18.953061 0.019634 -0.342480 -0.006634 3.155095 42.318869 -1.254093 0.010012 -0.401580 -0.020943 -0.632556 -21.810802 -0.455321 -0.001442 -0.064447 0.110538 0.000002 -0.000011 0.000002 
